inDegrees=yes
name=ik_XSDot_20240320_161646_orientations
DataType=double
version=3
OpenSimVersion=4.5-2024-01-10-34fd6af
endheader
time	pelvis_tilt	pelvis_list	pelvis_rotation	pelvis_tx	pelvis_ty	pelvis_tz	hip_flexion_r	hip_adduction_r	hip_rotation_r	knee_angle_r	knee_angle_r_beta	ankle_angle_r	subtalar_angle_r	mtp_angle_r	hip_flexion_l	hip_adduction_l	hip_rotation_l	knee_angle_l	knee_angle_l_beta	ankle_angle_l	subtalar_angle_l	mtp_angle_l	lumbar_extension	lumbar_bending	lumbar_rotation	arm_flex_r	arm_add_r	arm_rot_r	elbow_flex_r	pro_sup_r	wrist_flex_r	wrist_dev_r	arm_flex_l	arm_add_l	arm_rot_l	elbow_flex_l	pro_sup_l	wrist_flex_l	wrist_dev_l
0	0.02753633286260808	0.0008500151381243021	165.7814517971091	0	0.9399999999999999	0	0.2996151578951295	-0.006886279441211355	-0.0694699666914956	0.5094569391924145	0.008891700986040176	-1.963748172425493	0	0	0.2860554317125258	-0.01098715666792148	-0.06987604247804122	0.5115387732718221	0.008928035845206062	-1.963748172425493	0	0	0	0	0	0	-1.292193237326307	0	18.17214882152192	18.07392325253939	0	0	0	-1.292193237326307	0	18.17214882152192	18.07392325253939	0	0
0.01	-0.2745916004502756	0.5651968253547895	165.7606747459234	0	0.9399999999999999	0	0.3348138364262626	-1.567165515545069	0.5525744398790696	0.1726364515596606	0.003013074488675777	-1.991468472860966	0	0	0.863146351909339	-0.295491321008835	0.2228461309406171	0.2294414215973413	0.004004508247330034	-1.991468472860966	0	0	0	0	0	0	-1.313028884228481	0	18.43119525811292	18.28968082884115	0	0	0	-1.313028884228481	0	18.43119525811292	18.28968082884115	0	0
0.02	-0.08116871267723989	0.9292073078910373	165.7924148940579	0	0.9399999999999999	0	1.543815812222811	-3.112864126946798	1.063969067280444	0.08316655659110955	0.001451530240061053	-2.017055733033233	0	0	2.040192738190207	-0.5726975441597459	0.6043293414493189	0.1194428905078095	0.002084671707460357	-2.017055733033233	0	0	0	0	0	0	-1.332562614728015	0	18.67090862693696	18.48744812378963	0	0	0	-1.332562614728015	0	18.67090862693696	18.48744812378963	0	0
0.03	0.4221138427108755	1.067888659661761	165.8282916657122	0	0.9399999999999999	0	3.470823129031178	-4.277467384705732	1.384992177117059	0.05349317568339079	0.000933632043022937	-2.048575023610296	0	0	3.592250139894128	-0.7929292618116371	0.9942143851896985	0.07370751636367159	0.001286438844013668	-2.048575023610296	0	0	0	0	0	0	-1.355031513624293	0	18.96717341079317	18.73276206185815	0	0	0	-1.355031513624293	0	18.96717341079317	18.73276206185815	0	0
0.04	1.015623995009186	1.051997706782225	165.8757799397761	0	0.9399999999999999	0	5.854572054753132	-5.631559816793587	1.611852314871866	0.04344206716746832	0.0007582071059448491	-2.0816033065373	0	0	5.240864367052555	-1.011104596671812	1.399832438201428	0.0515341999538917	0.0008994414665765201	-2.0816033065373	0	0	0	0	0	0	-1.378259533828831	0	19.27528978345442	18.98898162163877	0	0	0	-1.378259533828831	0	19.27528978345442	18.98898162163877	0	0
0.05	1.460403968270308	1.109985609905974	165.9841739817446	0	0.9399999999999999	0	6.576886491965541	-5.119444531027595	0.8373954789012156	0.05292234739805587	0.0009236692099803291	-2.106193443263326	0	0	6.761769719361256	-1.429738304613716	1.829291196709359	0.03823268896596001	0.0006672863043469084	-2.106193443263326	0	0	0	0	0	0	-1.395095186734112	0	19.50921969194839	19.18048307662025	0	0	0	-1.395095186734112	0	19.50921969194839	19.18048307662025	0	0
0.06	2.201751173957113	1.249972359991544	166.3679117234411	0	0.9399999999999999	0	7.646431802747707	-2.263776936717097	0.1115904902886559	0.04836632589894489	0.0008441516340291944	-2.139560462673711	0	0	8.629719020499097	-2.036886613175909	2.555002763700241	0.02943175949427612	0.0005136811078302195	-2.139560462673711	0	0	0	0	0	0	-1.417432651823455	0	19.82083094839204	19.43974153634116	0	0	0	-1.417432651823455	0	19.82083094839204	19.43974153634116	0	0
0.07000000000000001	3.279749450105117	1.412846284748873	167.03195825792	0	0.9399999999999999	0	9.122360707329854	0.4544255396825685	-0.8568523347748884	0.0370124076345493	0.0006459883773131714	-2.1771714613769	0	0	10.70864502504886	-2.661792273078651	3.587329256069716	0.02253642117625052	0.0003933347511417449	-2.1771714613769	0	0	0	0	0	0	-1.44234550113168	0	20.17102752460646	19.73073786946869	0	0	0	-1.44234550113168	0	20.17102752460646	19.73073786946869	0	0
0.08	2.14306333237071	1.25708231024613	167.8132932883814	0	0.9399999999999999	0	9.211982618225875	0.2057762354225499	-2.184088720652511	0.02876046804956037	0.0005019648618794602	-2.216933538056038	0	0	10.44128759442585	-2.376040208646051	4.518136737981739	0.01747050084594013	0.00030491776173411	-2.216933538056038	0	0	0	0	0	0	-1.469720112116257	0	20.53349448907688	20.03360179666608	0	0	0	-1.469720112116257	0	20.53349448907688	20.03360179666608	0	0
0.09	-0.180905405264129	0.8619319013656827	168.557047164644	0	0.9399999999999999	0	8.018645127594665	0.2821714934542652	-3.79057232266623	0.02456556985377733	0.0004287500765770764	-2.258737936967018	0	0	8.825063129203308	-1.696276627261907	5.347269910675081	0.01393503669956617	0.0002432122717936735	-2.258737936967018	0	0	0	0	0	0	-1.501143491220735	0	20.91134471716797	20.34759321288599	0	0	0	-1.501143491220735	0	20.91134471716797	20.34759321288599	0	0
